<svg id="visual" viewBox="0 0 960 300" width="960" height="300" xmlns="http://www.w3.org/2000/svg" xmlns:xlink="http://www.w3.org/1999/xlink" version="1.1"><rect x="0" y="0" width="960" height="300" fill="#2d2d2d"></rect><path d="M0 124L7 124.3C14 124.7 28 125.3 41.8 128C55.7 130.7 69.3 135.3 83.2 138.8C97 142.3 111 144.7 125 141.2C139 137.7 153 128.3 167 123.2C181 118 195 117 208.8 115.5C222.7 114 236.3 112 250.2 110.3C264 108.7 278 107.3 292 110.2C306 113 320 120 334 125C348 130 362 133 375.8 129C389.7 125 403.3 114 417.2 110C431 106 445 109 459 115.8C473 122.7 487 133.3 501 138C515 142.7 529 141.3 542.8 134.8C556.7 128.3 570.3 116.7 584.2 115.7C598 114.7 612 124.3 626 130.8C640 137.3 654 140.7 668 137.8C682 135 696 126 709.8 122.2C723.7 118.3 737.3 119.7 751.2 117.2C765 114.7 779 108.3 793 105.3C807 102.3 821 102.7 835 104.8C849 107 863 111 876.8 116.7C890.7 122.3 904.3 129.7 918.2 135C932 140.3 946 143.7 953 145.3L960 147L960 0L953 0C946 0 932 0 918.2 0C904.3 0 890.7 0 876.8 0C863 0 849 0 835 0C821 0 807 0 793 0C779 0 765 0 751.2 0C737.3 0 723.7 0 709.8 0C696 0 682 0 668 0C654 0 640 0 626 0C612 0 598 0 584.2 0C570.3 0 556.7 0 542.8 0C529 0 515 0 501 0C487 0 473 0 459 0C445 0 431 0 417.2 0C403.3 0 389.7 0 375.8 0C362 0 348 0 334 0C320 0 306 0 292 0C278 0 264 0 250.2 0C236.3 0 222.7 0 208.8 0C195 0 181 0 167 0C153 0 139 0 125 0C111 0 97 0 83.2 0C69.3 0 55.7 0 41.8 0C28 0 14 0 7 0L0 0Z" fill="#ff5656"></path><path d="M0 109L7 104.5C14 100 28 91 41.8 93.2C55.7 95.3 69.3 108.7 83.2 112C97 115.3 111 108.7 125 107.2C139 105.7 153 109.3 167 110.5C181 111.7 195 110.3 208.8 105.8C222.7 101.3 236.3 93.7 250.2 95.2C264 96.7 278 107.3 292 112.2C306 117 320 116 334 109.8C348 103.7 362 92.3 375.8 87.8C389.7 83.3 403.3 85.7 417.2 90.3C431 95 445 102 459 105.8C473 109.7 487 110.3 501 112.5C515 114.7 529 118.3 542.8 118.2C556.7 118 570.3 114 584.2 113.3C598 112.7 612 115.3 626 116.3C640 117.3 654 116.7 668 116.8C682 117 696 118 709.8 117.5C723.7 117 737.3 115 751.2 114.8C765 114.7 779 116.3 793 117.2C807 118 821 118 835 114C849 110 863 102 876.8 98.5C890.7 95 904.3 96 918.2 95.3C932 94.7 946 92.3 953 91.2L960 90L960 0L953 0C946 0 932 0 918.2 0C904.3 0 890.7 0 876.8 0C863 0 849 0 835 0C821 0 807 0 793 0C779 0 765 0 751.2 0C737.3 0 723.7 0 709.8 0C696 0 682 0 668 0C654 0 640 0 626 0C612 0 598 0 584.2 0C570.3 0 556.7 0 542.8 0C529 0 515 0 501 0C487 0 473 0 459 0C445 0 431 0 417.2 0C403.3 0 389.7 0 375.8 0C362 0 348 0 334 0C320 0 306 0 292 0C278 0 264 0 250.2 0C236.3 0 222.7 0 208.8 0C195 0 181 0 167 0C153 0 139 0 125 0C111 0 97 0 83.2 0C69.3 0 55.7 0 41.8 0C28 0 14 0 7 0L0 0Z" fill="#f3475c"></path><path d="M0 90L7 83.8C14 77.7 28 65.3 41.8 62.5C55.7 59.7 69.3 66.3 83.2 67.8C97 69.3 111 65.7 125 64C139 62.3 153 62.7 167 67C181 71.3 195 79.7 208.8 80C222.7 80.3 236.3 72.7 250.2 69.8C264 67 278 69 292 72.5C306 76 320 81 334 82C348 83 362 80 375.8 76C389.7 72 403.3 67 417.2 67.2C431 67.3 445 72.7 459 72.2C473 71.7 487 65.3 501 67C515 68.7 529 78.3 542.8 77.2C556.7 76 570.3 64 584.2 57.5C598 51 612 50 626 55.5C640 61 654 73 668 74.8C682 76.7 696 68.3 709.8 65.5C723.7 62.7 737.3 65.3 751.2 71.3C765 77.3 779 86.7 793 89.8C807 93 821 90 835 85.2C849 80.3 863 73.7 876.8 72C890.7 70.3 904.3 73.7 918.2 76.5C932 79.3 946 81.7 953 82.8L960 84L960 0L953 0C946 0 932 0 918.2 0C904.3 0 890.7 0 876.8 0C863 0 849 0 835 0C821 0 807 0 793 0C779 0 765 0 751.2 0C737.3 0 723.7 0 709.8 0C696 0 682 0 668 0C654 0 640 0 626 0C612 0 598 0 584.2 0C570.3 0 556.7 0 542.8 0C529 0 515 0 501 0C487 0 473 0 459 0C445 0 431 0 417.2 0C403.3 0 389.7 0 375.8 0C362 0 348 0 334 0C320 0 306 0 292 0C278 0 264 0 250.2 0C236.3 0 222.7 0 208.8 0C195 0 181 0 167 0C153 0 139 0 125 0C111 0 97 0 83.2 0C69.3 0 55.7 0 41.8 0C28 0 14 0 7 0L0 0Z" fill="#e53a61"></path><path d="M0 27L7 34.2C14 41.3 28 55.7 41.8 62.2C55.7 68.7 69.3 67.3 83.2 64.5C97 61.7 111 57.3 125 53.5C139 49.7 153 46.3 167 48.5C181 50.7 195 58.3 208.8 57.8C222.7 57.3 236.3 48.7 250.2 46.5C264 44.3 278 48.7 292 49C306 49.3 320 45.7 334 41C348 36.3 362 30.7 375.8 34.5C389.7 38.3 403.3 51.7 417.2 57.3C431 63 445 61 459 60.5C473 60 487 61 501 62.2C515 63.3 529 64.7 542.8 58.3C556.7 52 570.3 38 584.2 34.3C598 30.7 612 37.3 626 41.3C640 45.3 654 46.7 668 50C682 53.3 696 58.7 709.8 56C723.7 53.3 737.3 42.7 751.2 42.7C765 42.7 779 53.3 793 56C807 58.7 821 53.3 835 53.7C849 54 863 60 876.8 63C890.7 66 904.3 66 918.2 64.3C932 62.7 946 59.3 953 57.7L960 56L960 0L953 0C946 0 932 0 918.2 0C904.3 0 890.7 0 876.8 0C863 0 849 0 835 0C821 0 807 0 793 0C779 0 765 0 751.2 0C737.3 0 723.7 0 709.8 0C696 0 682 0 668 0C654 0 640 0 626 0C612 0 598 0 584.2 0C570.3 0 556.7 0 542.8 0C529 0 515 0 501 0C487 0 473 0 459 0C445 0 431 0 417.2 0C403.3 0 389.7 0 375.8 0C362 0 348 0 334 0C320 0 306 0 292 0C278 0 264 0 250.2 0C236.3 0 222.7 0 208.8 0C195 0 181 0 167 0C153 0 139 0 125 0C111 0 97 0 83.2 0C69.3 0 55.7 0 41.8 0C28 0 14 0 7 0L0 0Z" fill="#d62e65"></path><path d="M0 34L7 35.8C14 37.7 28 41.3 41.8 40.5C55.7 39.7 69.3 34.3 83.2 32.5C97 30.7 111 32.3 125 30C139 27.7 153 21.3 167 16.7C181 12 195 9 208.8 6.5C222.7 4 236.3 2 250.2 5.5C264 9 278 18 292 23.7C306 29.3 320 31.7 334 34.8C348 38 362 42 375.8 40.3C389.7 38.7 403.3 31.3 417.2 27C431 22.7 445 21.3 459 19C473 16.7 487 13.3 501 12.7C515 12 529 14 542.8 13C556.7 12 570.3 8 584.2 10.8C598 13.7 612 23.3 626 28.3C640 33.3 654 33.7 668 33.8C682 34 696 34 709.8 32.2C723.7 30.3 737.3 26.7 751.2 21C765 15.3 779 7.7 793 6.5C807 5.3 821 10.7 835 16.2C849 21.7 863 27.3 876.8 28.3C890.7 29.3 904.3 25.7 918.2 20.8C932 16 946 10 953 7L960 4L960 0L953 0C946 0 932 0 918.2 0C904.3 0 890.7 0 876.8 0C863 0 849 0 835 0C821 0 807 0 793 0C779 0 765 0 751.2 0C737.3 0 723.7 0 709.8 0C696 0 682 0 668 0C654 0 640 0 626 0C612 0 598 0 584.2 0C570.3 0 556.7 0 542.8 0C529 0 515 0 501 0C487 0 473 0 459 0C445 0 431 0 417.2 0C403.3 0 389.7 0 375.8 0C362 0 348 0 334 0C320 0 306 0 292 0C278 0 264 0 250.2 0C236.3 0 222.7 0 208.8 0C195 0 181 0 167 0C153 0 139 0 125 0C111 0 97 0 83.2 0C69.3 0 55.7 0 41.8 0C28 0 14 0 7 0L0 0Z" fill="#c62368"></path></svg>